<svg width="49" height="59" viewBox="0 0 49 59" version="1.1" xmlns="http://www.w3.org/2000/svg" xmlns:xlink="http://www.w3.org/1999/xlink">
<title>&#208;&#158;</title>
<desc>Created using Figma</desc>
<g id="Canvas" transform="translate(-1873 -1599)">
<g id="&#208;&#158;">
<use xlink:href="#path0_fill" transform="translate(1870 1583)" fill="#FFFFFF"/>
</g>
</g>
<defs>
<path id="path0_fill" d="M 51.7969 46.8516C 51.7969 52.4505 50.8073 57.3594 48.8281 61.5781C 46.849 65.7969 44.0104 69.0521 40.3125 71.3438C 36.6406 73.6354 32.4219 74.7812 27.6562 74.7812C 22.9427 74.7812 18.737 73.6484 15.0391 71.3828C 11.3411 69.1172 8.47656 65.888 6.44531 61.6953C 4.41406 57.4766 3.38542 52.6328 3.35938 47.1641L 3.35938 44.3516C 3.35938 38.7526 4.36198 33.8307 6.36719 29.5859C 8.39844 25.3151 11.25 22.0469 14.9219 19.7812C 18.6198 17.4896 22.8385 16.3438 27.5781 16.3438C 32.3177 16.3438 36.5234 17.4896 40.1953 19.7812C 43.8932 22.0469 46.7448 25.3151 48.75 29.5859C 50.7812 33.8307 51.7969 38.7396 51.7969 44.3125L 51.7969 46.8516ZM 39.9219 44.2734C 39.9219 38.3099 38.8542 33.7786 36.7188 30.6797C 34.5833 27.5807 31.5365 26.0312 27.5781 26.0312C 23.6458 26.0312 20.612 27.5677 18.4766 30.6406C 16.3411 33.6875 15.2604 38.1667 15.2344 44.0781L 15.2344 46.8516C 15.2344 52.6589 16.3021 57.1641 18.4375 60.3672C 20.5729 63.5703 23.6458 65.1719 27.6562 65.1719C 31.5885 65.1719 34.6094 63.6354 36.7188 60.5625C 38.8281 57.4635 39.8958 52.9583 39.9219 47.0469L 39.9219 44.2734Z"/>
</defs>
</svg>
