<svg width="33" height="44" viewBox="0 0 33 44" version="1.1" xmlns="http://www.w3.org/2000/svg" xmlns:xlink="http://www.w3.org/1999/xlink">
<title>location-pin</title>
<desc>Created using Figma</desc>
<g id="Canvas" transform="translate(-9739 -643)">
<g id="location-pin">
<g id="Vector">
<use xlink:href="#path0_fill" transform="translate(9739 643)" fill="#FFFFFF"/>
</g>
<g id="&#208;&#161;">
<use xlink:href="#path1_fill" transform="translate(9749 649)" fill="#222222"/>
</g>
</g>
</g>
<defs>
<path id="path0_fill" d="M 16.5 0C 9.0426 0 0 7.99419 0 15.419C 0 28.2572 16.5 44 16.5 44C 16.5 44 33 28.2545 33 15.419C 33 7.99688 23.9574 0 16.5 0Z"/>
<path id="path1_fill" d="M 12.4316 14.2637C 12.321 15.7936 11.7546 16.998 10.7324 17.877C 9.7168 18.7559 8.37565 19.1953 6.70898 19.1953C 4.88607 19.1953 3.45052 18.5833 2.40234 17.3594C 1.36068 16.1289 0.839844 14.4427 0.839844 12.3008L 0.839844 11.4316C 0.839844 10.0645 1.08073 8.86003 1.5625 7.81836C 2.04427 6.77669 2.73112 5.97917 3.62305 5.42578C 4.52148 4.86589 5.56315 4.58594 6.74805 4.58594C 8.38867 4.58594 9.71029 5.02539 10.7129 5.9043C 11.7155 6.7832 12.2949 8.01693 12.4512 9.60547L 9.52148 9.60547C 9.44987 8.6875 9.19271 8.02344 8.75 7.61328C 8.3138 7.19661 7.64648 6.98828 6.74805 6.98828C 5.77148 6.98828 5.03906 7.33984 4.55078 8.04297C 4.06901 8.73958 3.82161 9.82357 3.80859 11.2949L 3.80859 12.3691C 3.80859 13.9056 4.03971 15.0286 4.50195 15.7383C 4.9707 16.4479 5.70638 16.8027 6.70898 16.8027C 7.61393 16.8027 8.28776 16.5977 8.73047 16.1875C 9.17969 15.7708 9.43685 15.1296 9.50195 14.2637L 12.4316 14.2637Z"/>
</defs>
</svg>
