<svg width="33" height="44" viewBox="0 0 33 44" version="1.1" xmlns="http://www.w3.org/2000/svg" xmlns:xlink="http://www.w3.org/1999/xlink">
<title>location-pin</title>
<desc>Created using Figma</desc>
<g id="Canvas" transform="translate(-9158 -643)">
<g id="location-pin">
<g id="Vector">
<use xlink:href="#path0_fill" transform="translate(9158 643)" fill="#FFFFFF"/>
</g>
<g id="&#208;&#158;">
<use xlink:href="#path1_fill" transform="translate(9168 649)" fill="#222222"/>
</g>
</g>
</g>
<defs>
<path id="path0_fill" d="M 16.5 0C 9.0426 0 0 7.99419 0 15.419C 0 28.2572 16.5 44 16.5 44C 16.5 44 33 28.2545 33 15.419C 33 7.99688 23.9574 0 16.5 0Z"/>
<path id="path1_fill" d="M 12.9492 12.2129C 12.9492 13.6126 12.7018 14.8398 12.207 15.8945C 11.7122 16.9492 11.0026 17.763 10.0781 18.3359C 9.16016 18.9089 8.10547 19.1953 6.91406 19.1953C 5.73568 19.1953 4.68424 18.9121 3.75977 18.3457C 2.83529 17.7793 2.11914 16.972 1.61133 15.9238C 1.10352 14.8691 0.846354 13.6582 0.839844 12.291L 0.839844 11.5879C 0.839844 10.1882 1.09049 8.95768 1.5918 7.89648C 2.09961 6.82878 2.8125 6.01172 3.73047 5.44531C 4.65495 4.8724 5.70964 4.58594 6.89453 4.58594C 8.07943 4.58594 9.13086 4.8724 10.0488 5.44531C 10.9733 6.01172 11.6862 6.82878 12.1875 7.89648C 12.6953 8.95768 12.9492 10.1849 12.9492 11.5781L 12.9492 12.2129ZM 9.98047 11.5684C 9.98047 10.0775 9.71354 8.94466 9.17969 8.16992C 8.64583 7.39518 7.88411 7.00781 6.89453 7.00781C 5.91146 7.00781 5.15299 7.39193 4.61914 8.16016C 4.08529 8.92188 3.8151 10.0417 3.80859 11.5195L 3.80859 12.2129C 3.80859 13.6647 4.07552 14.791 4.60938 15.5918C 5.14323 16.3926 5.91146 16.793 6.91406 16.793C 7.89714 16.793 8.65234 16.4089 9.17969 15.6406C 9.70703 14.8659 9.97396 13.7396 9.98047 12.2617L 9.98047 11.5684Z"/>
</defs>
</svg>
