<svg width="70" height="62" viewBox="0 0 70 62" version="1.1" xmlns="http://www.w3.org/2000/svg" xmlns:xlink="http://www.w3.org/1999/xlink">
<title>Vector</title>
<desc>Created using Figma</desc>
<g id="Canvas" transform="translate(-5514 -1019)">
<g id="Vector">
<use xlink:href="#path0_fill" transform="translate(5514 1019)" fill="#FFFFFF"/>
</g>
</g>
<defs>
<path id="path0_fill" d="M 6.75872 35.4962C 6.06973 34.6694 2.52632 30.5352 1.31237 30.2706C 0.557759 30.1052 0 29.4107 0 28.65L 0 1.66218C 0 0.603834 0.98428 -0.322219 2.29665 0.107734C 8.36638 2.09213 17.9139 7.68153 18.242 7.81382L 31.3985 7.68153C 34.1217 7.81382 36.8449 8.07841 39.3056 8.7068C 41.2085 7.94611 44.0301 8.2107 47.1142 8.50836C 52.6262 9.03753 54.7588 9.33519 58.1709 7.18543C 61.255 5.26717 67.2591 1.49681 67.8825 1.52989C 70.0807 1.72833 69.8183 5.06873 67.6528 4.87029L 58.8271 10.7243C 55.415 12.874 50.0998 12.1464 45.6706 11.7165C 49.9358 15.4538 48 19.0918 49.1812 23.1929C 50.1655 26.6656 52.2981 27.9886 50.1327 30.1714C 47.3439 33.0157 39.5681 32.7842 36.8121 23.7221C 36.3199 22.1015 35.8606 20.6793 33.2687 20.514L 8.46481 38.3736C 5.51197 40.7218 9.21942 43.533 12.4675 41.2179L 27.9864 30.3698C 29.7909 29.113 31.6938 31.8581 29.8893 33.1149L 13.5831 44.4591C 12.9269 45.0544 15.0595 49.3539 18.2748 47.2042L 31.9891 36.7861C 33.728 35.4631 35.7622 38.1421 33.9905 39.465L 20.5386 49.7177C 18.7997 51.3714 22.8681 53.8188 25.3944 51.9006L 34.8763 44.426C 36.2215 43.4007 38.0588 44.7898 37.4683 46.3443C 38.4525 45.6828 39.6337 45.3851 40.8804 45.4843C 41.471 43.1031 43.6036 41.1187 46.1955 41.0194C 46.3596 36.9184 50.9857 33.148 55.6118 36.323C 60.2707 33.4457 60.3035 29.9068 67.7841 27.1617C 69.8511 26.401 70.9666 29.5761 68.8996 30.3037C 62.6658 32.5857 62.5674 35.5954 58.1709 38.6382C 66.0452 47.568 60.2051 51.8014 54.4307 50.8753C 54.2994 51.9998 53.8729 52.992 53.1839 53.7858C 52.0684 55.1087 50.3623 55.7371 48.6562 55.4725C 47.8032 57.9199 44.9816 59.3751 42.4553 58.9452C 41.471 61.8887 37.862 63.2117 34.9419 60.5989C 34.4826 60.1689 34.0561 59.739 33.6624 59.3421C 29.4956 61.4918 24.7054 59.6067 24.2789 55.9024C 21.0636 56.3324 17.2249 54.4472 16.7984 51.1399C 13.4518 51.3383 10.5974 48.5271 10.2365 45.4513C 4.59331 45.6497 1.47642 39.2996 6.75872 35.4962ZM 5.87287 29.5761C 7.18524 30.8659 8.53043 32.4535 9.41628 33.5779L 31.7922 17.4712C 32.0547 17.2728 32.4156 17.1405 32.7765 17.1405C 40.1914 17.1405 39.1415 22.1346 40.8804 25.1112C 42.7506 28.2531 45.8018 29.0469 47.5407 27.9886C 46.1299 25.1442 45.2441 22.4984 45.3753 19.191C 45.8674 7.02006 19.2919 12.5764 16.6671 10.7904L 3.34655 3.91117L 3.34655 27.5586C 4.16678 28.0547 5.01983 28.7492 5.87287 29.5761ZM 53.9057 47.3695C 55.2837 47.568 56.9242 48.0641 58.3678 46.9065C 59.9755 45.5505 55.2181 39.8619 53.2823 38.8035C 52.5277 38.4067 51.7731 38.3074 51.0841 38.7374C 49.3452 39.895 49.3124 41.6809 49.6077 42.0778C 49.6077 42.0778 52.5277 43.9299 53.9057 47.3695ZM 48.0657 51.6029C 48.6234 51.9667 49.1156 52.3967 49.9686 52.099C 53.8401 50.7099 47.0814 41.0525 44.391 45.6166C 44.1942 45.9804 44.0629 46.3112 44.0301 46.5427C 45.0144 47.2042 47.1142 50.1477 48.0657 51.6029ZM 41.6678 54.5134C 41.9303 54.7449 42.8162 56.4978 44.7519 55.241C 46.3596 54.2157 45.08 53.1904 43.7676 51.3053C 42.7506 49.817 42.0288 48.7917 40.4867 48.8248C 39.3056 48.8248 38.5182 49.6185 38.2557 50.743L 41.6678 54.5134ZM 35.0732 49.7508C 35.2372 49.0563 35.5325 48.4279 35.9262 47.8656L 28.6097 53.6204C 26.0506 56.2663 29.1347 57.523 31.5626 56.6301C 29.6924 53.2235 31.5626 50.5446 35.0076 49.9823L 35.0732 49.7508ZM 36.0575 53.1904C 35.8606 53.1904 33.9248 53.3558 34.1873 54.348C 34.5154 55.5386 38.4197 60.5658 39.3056 57.8868C 39.6665 56.8285 38.1572 55.6048 37.0745 54.4141C 36.484 53.7196 36.1559 53.2897 36.0575 53.1904Z"/>
</defs>
</svg>
