<svg width="60" height="62" viewBox="0 0 60 62" version="1.1" xmlns="http://www.w3.org/2000/svg" xmlns:xlink="http://www.w3.org/1999/xlink">
<title>Vector</title>
<desc>Created using Figma</desc>
<g id="Canvas" transform="translate(-5972 -742)">
<g id="Vector">
<use xlink:href="#path0_fill" transform="translate(5972 742)" fill="#FFFFFF"/>
</g>
</g>
<defs>
<path id="path0_fill" d="M 10.542 48.3187C 11.7993 48.3187 12.7665 49.4045 12.7665 50.8161L 12.7665 59.5026C 12.7665 60.9142 11.7993 62 10.542 62L 4.54564 62C 3.28833 62 2.32117 60.9142 2.32117 59.5026L 2.32117 50.8161C 2.32117 49.4045 3.28833 48.3187 4.54564 48.3187L 10.542 48.3187ZM 25.3395 45.387C 26.5968 45.387 27.564 46.4729 27.564 47.8844L 27.564 59.5026C 27.564 60.9142 26.5968 62 25.3395 62L 19.3431 62C 18.0858 62 17.1187 60.9142 17.1187 59.5026L 17.1187 47.8844C 17.1187 46.4729 18.0858 45.387 19.3431 45.387L 25.3395 45.387ZM 40.2337 38.8722C 41.491 38.8722 42.4582 39.958 42.4582 41.3695L 42.4582 59.5026C 42.4582 60.9142 41.491 62 40.2337 62L 34.2374 62C 32.98 62 32.0129 60.9142 32.0129 59.5026L 32.0129 41.2609C 32.0129 39.8494 32.98 38.7636 34.2374 38.7636L 40.2337 38.7636L 40.2337 38.8722ZM 55.0312 61.8914L 49.0349 61.8914C 47.7776 61.8914 46.8104 60.8056 46.8104 59.394L 46.8104 28.9912C 46.8104 27.5797 47.7776 26.4939 49.0349 26.4939L 55.0312 26.4939C 56.2885 26.4939 57.2557 27.5797 57.2557 28.9912L 57.2557 59.394C 57.2557 60.8056 56.2885 61.8914 55.0312 61.8914ZM 50.8725 6.4063L 46.617 7.38354C 45.3597 7.70928 44.1991 6.73205 43.9089 5.42907C 43.6188 4.01751 44.3925 2.71454 45.6498 2.38879L 55.2247 0.108582C 55.4181 0.108582 55.5148 0 55.7082 0C 56.7721 0 57.7393 0.868651 57.9327 2.06305L 59.9637 12.8126C 60.0604 13.4641 59.9637 14.1156 59.6736 14.7671C 59.3834 15.31 58.8031 15.7443 58.2229 15.8529C 58.0294 15.8529 57.9327 15.9615 57.7393 15.9615C 56.6754 15.9615 55.7082 15.0928 55.5148 13.8984L 54.5476 9.01226C 50.2922 16.7215 44.9728 23.2364 38.9764 28.4483C 33.7538 32.9002 27.8541 36.3748 21.5676 38.655C 13.5402 41.5867 6.96353 42.021 3.77191 42.021C 2.70804 42.021 2.12774 42.021 2.12774 42.021C 1.54745 42.021 0.967154 41.6953 0.580291 41.1524C 0.193428 40.6095 0 39.958 0 39.3065C 0.0967157 37.8949 1.16059 36.8091 2.41789 36.9177C 2.41789 36.9177 2.90147 36.9177 3.6752 36.9177C 6.09309 36.9177 12.573 36.5919 20.3103 33.7688C 33.1735 28.9912 43.3286 19.8704 50.8725 6.4063Z"/>
</defs>
</svg>
