<svg width="60" height="46" viewBox="0 0 60 46" version="1.1" xmlns="http://www.w3.org/2000/svg" xmlns:xlink="http://www.w3.org/1999/xlink">
<title>Vector</title>
<desc>Created using Figma</desc>
<g id="Canvas" transform="translate(-5514 -503)">
<g id="Vector">
<use xlink:href="#path0_fill" transform="translate(5514 503)" fill="#FFFFFF"/>
</g>
</g>
<defs>
<path id="path0_fill" d="M 9.90888 29.5129C 11.3009 35.1498 13.0708 37.6158 18.9748 40.1987C 24.8817 42.7787 27.6867 45.5987 30.0026 45.5987C 32.3156 45.5987 34.9466 43.1327 40.8505 40.5467C 46.7574 37.9638 45.1794 37.1778 46.5714 31.5409L 30.0026 39.5988L 9.90888 29.5129ZM 58.5353 14.8071L 33.5606 0.82124C 31.6046 -0.273746 28.4006 -0.273746 26.4447 0.82124L 1.46698 14.8071C -0.488994 15.9021 -0.488994 17.696 1.46698 18.791L 26.4417 32.7768C 28.3976 33.8718 31.6016 33.8718 33.5576 32.7768L 49.7034 23.735L 32.1956 19.634C 31.5206 19.799 30.7796 19.892 30.0026 19.892C 26.8467 19.892 24.2907 18.374 24.2907 16.499C 24.2907 14.6181 26.8497 13.1001 30.0026 13.1001C 32.4506 13.1001 34.5326 14.0211 35.3426 15.3021L 53.8883 21.389L 58.5353 18.788C 60.4882 17.696 60.4882 15.9021 58.5353 14.8071ZM 50.9034 41.3087C 50.7084 42.4637 54.7523 44.3627 55.1363 40.9877C 56.8733 25.7719 53.8883 21.395 53.8883 21.395L 49.7034 23.738C 49.7034 23.735 53.2523 27.1129 50.9034 41.3087Z"/>
</defs>
</svg>
